<svg width="14" height="14" viewBox="0 0 14 14" fill="none" xmlns="http://www.w3.org/2000/svg">
<path d="M7.00004 9.91667C7.30946 9.91667 7.60621 9.79375 7.825 9.57496C8.04379 9.35617 8.16671 9.05942 8.16671 8.75C8.16671 8.1025 7.64171 7.58334 7.00004 7.58334C6.69062 7.58334 6.39388 7.70625 6.17508 7.92504C5.95629 8.14384 5.83337 8.44058 5.83337 8.75C5.83337 9.05942 5.95629 9.35617 6.17508 9.57496C6.39388 9.79375 6.69062 9.91667 7.00004 9.91667ZM10.5 4.66667C10.8095 4.66667 11.1062 4.78959 11.325 5.00838C11.5438 5.22717 11.6667 5.52392 11.6667 5.83334V11.6667C11.6667 11.9761 11.5438 12.2728 11.325 12.4916C11.1062 12.7104 10.8095 12.8333 10.5 12.8333H3.50004C3.19062 12.8333 2.89388 12.7104 2.67508 12.4916C2.45629 12.2728 2.33337 11.9761 2.33337 11.6667V5.83334C2.33337 5.18584 2.85837 4.66667 3.50004 4.66667H4.08337V3.5C4.08337 2.72645 4.39066 1.98459 4.93765 1.43761C5.48463 0.890627 6.22649 0.583336 7.00004 0.583336C7.38306 0.583336 7.76233 0.658778 8.1162 0.805354C8.47007 0.95193 8.7916 1.16677 9.06244 1.43761C9.33327 1.70845 9.54811 2.02998 9.69469 2.38384C9.84127 2.73771 9.91671 3.11698 9.91671 3.5V4.66667H10.5ZM7.00004 1.75C6.53591 1.75 6.09079 1.93438 5.7626 2.26257C5.43441 2.59075 5.25004 3.03587 5.25004 3.5V4.66667H8.75004V3.5C8.75004 3.03587 8.56567 2.59075 8.23748 2.26257C7.90929 1.93438 7.46417 1.75 7.00004 1.75Z" fill="#AAAAAA"/>
</svg>
