<svg width="14" height="14" viewBox="0 0 14 14" fill="none" xmlns="http://www.w3.org/2000/svg">
<path d="M10.5 0.583336C8.89002 0.583336 7.58335 1.89 7.58335 3.5V4.66667H2.33335C1.69169 4.66667 1.16669 5.18584 1.16669 5.83334V11.6667C1.16669 12.3142 1.69169 12.8333 2.33335 12.8333H9.33335C9.98085 12.8333 10.5 12.3142 10.5 11.6667V5.83334C10.5 5.19167 9.98085 4.66667 9.33335 4.66667H8.75002V3.5C8.75002 2.53167 9.53169 1.75 10.5 1.75C11.4684 1.75 12.25 2.53167 12.25 3.5V4.66667H13.4167V3.5C13.4167 1.89 12.11 0.583336 10.5 0.583336ZM5.83335 7.58334C6.47502 7.58334 7.00002 8.1025 7.00002 8.75C7.00002 9.3975 6.48085 9.91667 5.83335 9.91667C5.19169 9.91667 4.66669 9.3975 4.66669 8.75C4.66669 8.10834 5.19169 7.58334 5.83335 7.58334Z" fill="#AAAAAA"/>
</svg>
